<svg xmlns="http://www.w3.org/2000/svg"  viewBox="0 0 100 72" fill="none">
  <path d="M87.25 22.5361L89.1255 28.6154C89.8874 31.085 88.1425 33.6181 85.5635 33.7862L84.2706 33.8704C81.6916 34.0385 79.9466 36.5716 80.7085 39.0412L81.0905 40.2793C81.8524 42.7488 80.1074 45.2819 77.5284 45.45L76.2355 45.5343C73.6565 45.7024 71.9115 48.2354 72.6734 50.705L73.0554 51.9431C73.8173 54.4127 72.0723 56.9457 69.4933 57.1138L68.2004 57.1981C65.6214 57.3662 63.8764 59.8992 64.6383 62.3688L66.5139 68.4481" stroke="#DD3128" stroke-opacity="0.75" stroke-width="6" stroke-linecap="round"/>
  <path d="M74.9378 4L74.1586 12.0205C73.7837 15.879 69.9029 18.3745 66.2367 17.1146L65.8028 16.9655C62.1366 15.7056 58.2558 18.201 57.8809 22.0596L57.8366 22.5161C57.4617 26.3746 53.5809 28.8701 49.9147 27.6102L49.4809 27.4611C45.8146 26.2012 41.9338 28.6967 41.559 32.5552L41.5146 33.0117C41.1397 36.8702 37.2589 39.3657 33.5927 38.1058L33.1589 37.9567C29.4927 36.6968 25.6119 39.1923 25.237 43.0508L24.4577 51.0713" stroke="#DD3128" stroke-opacity="0.75" stroke-width="7" stroke-linecap="round"/>
  <circle cx="3.37238" cy="46.0766" r="3.2219" transform="rotate(177.258 3.37238 46.0766)" fill="#DD3128" fill-opacity="0.75"/>
  <circle cx="96.4715" cy="14.3786" r="2.50593" transform="rotate(177.258 96.4715 14.3786)" fill="#DD3128" fill-opacity="0.75"/>
</svg>