<svg xmlns="http://www.w3.org/2000/svg" viewBox="0 0 140 98" fill="none">
  <path d="M16.91 66.7354L14.1998 56.1822C13.557 53.679 15.4211 51.2324 18.0052 51.1879L23.8335 51.0875C26.4176 51.043 28.2818 48.5963 27.6389 46.0931L26.189 40.4471C25.5461 37.9439 27.4103 35.4972 29.9943 35.4527L35.8227 35.3523C38.4067 35.3078 40.2709 32.8612 39.6281 30.358L38.1781 24.712C37.5352 22.2088 39.3994 19.7621 41.9835 19.7176L47.8118 19.6172C50.3959 19.5727 52.2601 17.1261 51.6172 14.6228L48.907 4.06974" stroke="#DD3128" stroke-width="7" stroke-linecap="round"/>
  <path d="M32.848 93.418L34.9059 79.2976C35.465 75.4614 39.4607 73.1545 43.0625 74.5884L49.2594 77.0555C52.8612 78.4894 56.8569 76.1824 57.416 72.3463L58.3779 65.746C58.937 61.9098 62.9327 59.6029 66.5345 61.0368L72.7314 63.5039C76.3332 64.9378 80.3289 62.6309 80.888 58.7947L81.8499 52.1944C82.409 48.3583 86.4047 46.0513 90.0065 47.4852L96.2035 49.9523C99.8052 51.3862 103.801 49.0793 104.36 45.2431L106.418 31.1227" stroke="#DD3128" stroke-width="8" stroke-linecap="round"/>
  <circle cx="135.5" cy="39.5" r="4.5" fill="#DD3128"/>
  <circle cx="3.5" cy="77.5" r="3.5" fill="#DD3128"/>
</svg>